<svg id="avocado" enable-background="new 0 0 512 512" height="512" viewBox="0 0 512 512" width="512" xmlns="http://www.w3.org/2000/svg"><g><path d="m316.25 0v30h-14.16c-17.14 0-31.09 13.95-31.09 31.09v14.16h-30v-14.16c0-15.3 5.66-29.31 15-40.04 11.21-12.89 27.71-21.05 46.09-21.05z" fill="#63352b"/><path d="m406.62 346.38c0 83.18-67.43 150.62-150.62 150.62s-150.62-67.44-150.62-150.62c0-44.03 18.89-83.65 49.01-111.19 27.47-25.13 42.21-60.99 41.38-98.21-.01-.5-.02-1-.02-1.48 0-33.28 26.98-60.25 60.25-60.25 33.28 0 60.26 26.97 60.26 60.25 0 .49-.01.99-.02 1.5-.84 37.21 13.91 73.07 41.38 98.19 30.11 27.54 49 67.16 49 111.19z" fill="#b9e635"/><path d="m406.62 346.38c0 83.18-67.43 150.62-150.62 150.62v-421.75c33.28 0 60.26 26.97 60.26 60.25 0 .49-.01.99-.02 1.5-.84 37.21 13.91 73.07 41.38 98.19 30.11 27.54 49 67.16 49 111.19z" fill="#94cc31"/><path d="m367.74 224.12c-23.95-21.9-37.25-53.53-36.5-86.81 1.15-42.16-33.53-77.15-75.24-77.06-42.06-.06-76.38 35.22-75.23 77.07.74 33.27-12.56 64.91-36.5 86.8-34.25 31.32-53.89 75.88-53.89 122.26 0 91.32 74.3 165.62 165.62 165.62s165.62-74.3 165.62-165.62c0-46.38-19.64-90.94-53.88-122.26zm-111.74 257.88c-74.78 0-135.62-60.84-135.62-135.62 0-37.98 16.09-74.48 44.13-100.12 30.33-27.74 47.19-67.69 46.25-109.6-.79-25.39 20.48-46.51 45.24-46.41 25.29-.04 46.02 21.45 45.25 46.41-.95 41.91 15.91 81.86 46.24 109.6 28.05 25.65 44.13 62.14 44.13 100.12 0 74.78-60.84 135.62-135.62 135.62z" fill="#709828"/><path d="m421.62 346.38c0 91.32-74.3 165.62-165.62 165.62v-30c74.78 0 135.62-60.84 135.62-135.62 0-37.98-16.08-74.47-44.13-100.12-30.33-27.74-47.19-67.69-46.24-109.6.77-24.96-19.96-46.45-45.25-46.41v-30c41.71-.09 76.39 34.9 75.24 77.06-.75 33.28 12.55 64.91 36.5 86.81 34.24 31.32 53.88 75.88 53.88 122.26z" fill="#4c671c"/><path d="m326.05 346.38c0 38.68-31.37 70.04-70.05 70.04s-70.05-31.36-70.05-70.04c0-38.69 31.37-70.05 70.05-70.05s70.05 31.36 70.05 70.05z" fill="#9c4428"/><path d="m326.05 346.38c0 38.68-31.37 70.04-70.05 70.04v-140.09c38.68 0 70.05 31.36 70.05 70.05z" fill="#63352b"/></g></svg>